# xmcd
#
# Track frame offsets:
#	150
#	11837
#	22061
#	32945
#	44024
#	53686
#	66948
#	77675
#	87727
#	99736
#	111123
#	122817
#
# Disc length: 1780 seconds
# Revision: 0
# Processed by: cddbd v1.5.2PL0 Copyright (c) Steve Scherf et al.
# Submitted via: dBpowerAMP V12.0
#
DISCID=a906f20c
DTITLE=Wilma Burgess - Sings Misty Blue
DYEAR=1966
DGENRE=Country
TTITLE0=Misty Blue
TTITLE1=Two Little Rivers of Tears
TTITLE2=The Tip of my Fingers
TTITLE3=Aint Got No Man
TTITLE4=Touch My Heart
TTITLE5=Four Walls
TTITLE6=Making Plans
TTITLE7=Is It Really Over?
TTITLE8=If the Whole World Stopped Loving
TTITLE9=When You're Not Around
TTITLE10=Fifteen Days
TTITLE11=There Goes My Everything
EXTD=
EXTT0=
EXTT1=
EXTT2=
EXTT3=
EXTT4=
EXTT5=
EXTT6=
EXTT7=
EXTT8=
EXTT9=
EXTT10=
EXTT11=
PLAYORDER=
